<?xml version="1.0" standalone="no"?>
<!DOCTYPE svg PUBLIC "-//W3C//DTD SVG 20010904//EN"
 "http://www.w3.org/TR/2001/REC-SVG-20010904/DTD/svg10.dtd">
<svg version="1.0" xmlns="http://www.w3.org/2000/svg"
 width="360.000000pt" height="360.000000pt" viewBox="0 0 360.000000 360.000000"
 preserveAspectRatio="xMidYMid meet">

<g transform="translate(0.000000,360.000000) scale(0.100000,-0.100000)"
fill="#000000" stroke="none">
<path d="M1647 2720 c-357 -64 -636 -315 -744 -667 -24 -80 -26 -103 -27 -248
0 -184 16 -261 84 -403 50 -104 86 -157 169 -244 115 -123 270 -214 436 -259
116 -32 355 -32 470 -1 348 95 604 367 677 722 40 192 10 418 -78 594 -68 135
-187 273 -306 355 -73 49 -204 109 -293 132 -89 24 -305 34 -388 19z m299 -41
c110 -19 273 -82 338 -132 17 -13 12 -15 -54 -19 -68 -5 -78 -3 -154 32 -95
44 -171 65 -280 81 -77 10 -123 28 -109 42 10 11 193 8 259 -4z m-41 -84 c99
-26 214 -76 235 -102 16 -21 50 -139 50 -176 0 -9 -34 -31 -77 -51 -43 -21
-115 -62 -160 -92 l-83 -55 -92 29 c-51 16 -126 37 -166 47 -85 20 -84 19
-107 158 -23 139 -22 142 30 180 25 17 69 45 98 60 48 27 58 29 132 24 44 -3
107 -13 140 -22z m328 -101 c-25 -11 -33 -21 -34 -42 l-1 -27 -8 25 c-14 43
-11 49 23 53 53 6 53 6 20 -9z m-769 -41 c3 -21 15 -85 25 -143 l20 -104 -33
-41 c-33 -40 -117 -167 -147 -222 -16 -28 -21 -30 -115 -42 -55 -6 -118 -14
-140 -17 -49 -7 -46 -12 -69 120 -20 118 -19 159 6 209 33 65 102 157 161 214
58 57 65 59 205 61 l82 2 5 -37z m881 -263 c106 -80 122 -101 131 -165 10 -80
11 -258 1 -318 -8 -45 -12 -50 -80 -96 -76 -51 -169 -101 -188 -101 -6 0 -39
25 -72 56 -34 31 -106 85 -159 121 l-98 65 0 169 0 168 73 52 c39 28 112 71
161 95 l89 44 46 -26 c25 -15 69 -44 96 -64z m264 -31 c58 -129 74 -223 68
-394 -6 -180 -18 -230 -61 -256 -44 -27 -51 -24 -66 24 -7 23 -22 62 -34 87
-16 32 -20 53 -15 75 9 40 9 255 0 329 -7 55 -5 64 28 132 20 40 39 73 42 73
4 1 21 -31 38 -70z m-953 -19 c107 -22 137 -36 59 -26 -27 3 -77 8 -111 11
l-60 7 -40 -44 c-21 -24 -51 -59 -66 -78 -42 -53 -33 -27 13 43 51 76 79 107
95 107 6 0 56 -9 110 -20z m-710 -290 l-15 -95 4 125 c3 69 8 139 12 155 15
59 14 -86 -1 -185z m393 -11 c13 -22 56 -82 96 -134 l73 -93 -14 -63 c-7 -35
-19 -119 -25 -185 l-13 -121 -65 -7 c-139 -13 -150 -11 -197 38 -58 61 -120
154 -161 244 -38 81 -39 105 -11 269 9 59 12 63 41 68 91 17 138 23 193 24
l60 1 23 -41z m628 -178 c48 -33 118 -85 156 -117 75 -63 76 -68 57 -180 -25
-144 -29 -153 -73 -175 -78 -40 -322 -119 -367 -119 -11 0 -246 156 -252 167
-11 20 30 355 46 370 1 2 42 14 90 28 48 14 119 38 159 54 40 16 77 29 84 30
6 1 51 -26 100 -58z m-956 -159 c38 -84 105 -184 173 -256 47 -50 107 -156 89
-156 -15 0 -116 96 -161 153 -89 112 -148 228 -176 342 l-8 30 27 -25 c15 -14
40 -53 56 -88z m1569 -119 c-43 -80 -124 -187 -179 -236 -17 -15 -32 -27 -34
-27 -2 0 -1 15 1 33 3 21 24 52 62 94 34 36 72 91 92 132 27 57 39 72 63 79
17 5 32 8 34 6 2 -2 -16 -38 -39 -81z m-277 -213 c24 0 27 -3 27 -35 0 -49
-27 -74 -141 -129 -142 -68 -315 -104 -441 -90 l-56 6 31 57 31 57 85 23 c101
26 288 98 297 113 4 7 30 8 73 4 36 -3 78 -6 94 -6z"/>
</g>
</svg>
